<svg width="1190" height="633" viewBox="0 0 1190 633" fill="none" xmlns="http://www.w3.org/2000/svg">
<path d="M1069 305.184C1002.34 474.878 823 512 717 512C326.131 512 316.472 334.531 316.472 297.439M316.472 297.439C326.5 177.5 512.371 120 723.55 120C883.704 120 1093.74 215.974 1065.61 256.375C1057.99 267.316 971.358 328.708 749.191 334.531C506.537 340.891 388.979 316.987 316.472 297.439ZM316.472 297.439C249.891 279.489 145.743 99.6744 111.909 127.568C95.6466 140.975 188.625 248.318 188.626 334.531C188.626 413.321 80.6552 501.811 118 518.5C155.345 535.189 189.091 402.659 284.5 384.5" stroke="#FFDF3D" stroke-width="22" stroke-linecap="round"/>
</svg>
