{
  "accessors": [
    {
      "bufferView": 0,
      "componentType": 5126,
      "count": 130,
      "type": "VEC3",
      "max": [
        0.5,
        1.0,
        0.5
      ],
      "min": [
        -0.5,
        0.0,
        -0.5
      ]
    },
    {
      "bufferView": 1,
      "componentType": 5126,
      "count": 130,
      "type": "VEC3",
      "max": [
        1.0,
        1.0,
        1.0
      ],
      "min": [
        -1.0,
        -1.0,
        -1.0
      ]
    },
    {
      "bufferView": 2,
      "componentType": 5126,
      "count": 130,
      "type": "VEC4",
      "max": [
        1.0,
        0.0,
        1.0,
        1.0
      ],
      "min": [
        -1.0,
        0.0,
        -1.0,
        -1.0
      ]
    },
    {
      "bufferView": 3,
      "componentType": 5126,
      "count": 130,
      "type": "VEC2",
      "max": [
        1.0,
        0.99000000953674316
      ],
      "min": [
        0.0,
        0.0
      ]
    },
    {
      "bufferView": 4,
      "componentType": 5121,
      "count": 372,
      "type": "SCALAR",
      "max": [
        129.0
      ],
      "min": [
        0.0
      ]
    },
    {
      "bufferView": 5,
      "componentType": 5126,
      "count": 10,
      "type": "VEC3",
      "max": [
        0.0025204990524798632,
        0.0024661710485816,
        0.0024351272732019424
      ],
      "min": [
        -0.002257858170196414,
        -0.0024661710485816,
        -0.0024351282045245171
      ]
    },
    {
      "bufferView": 6,
      "componentType": 5126,
      "count": 10,
      "type": "VEC3",
      "max": [
        0.98471003770828247,
        0.90120017528533936,
        0.95545798540115356
      ],
      "min": [
        -0.87368541955947876,
        -0.994760274887085,
        -0.95545822381973267
      ]
    },
    {
      "bufferView": 7,
      "componentType": 5121,
      "count": 48,
      "type": "SCALAR",
      "max": [
        9.0
      ],
      "min": [
        0.0
      ]
    }
  ],
  "asset": {
    "version": "2.0"
  },
  "buffers": [
    {
      "uri": "Scaffold_3_2022-08-18_00.37.12.bin",
      "byteLength": 6900
    }
  ],
  "bufferViews": [
    {
      "buffer": 0,
      "byteLength": 1560
    },
    {
      "buffer": 0,
      "byteOffset": 1560,
      "byteLength": 1560
    },
    {
      "buffer": 0,
      "byteOffset": 3120,
      "byteLength": 2080
    },
    {
      "buffer": 0,
      "byteOffset": 5200,
      "byteLength": 1040
    },
    {
      "buffer": 0,
      "byteOffset": 6240,
      "byteLength": 372
    },
    {
      "buffer": 0,
      "byteOffset": 6612,
      "byteLength": 120
    },
    {
      "buffer": 0,
      "byteOffset": 6732,
      "byteLength": 120
    },
    {
      "buffer": 0,
      "byteOffset": 6852,
      "byteLength": 48
    }
  ],
  "materials": [
    {
      "pbrMetallicRoughness": {
        "baseColorFactor": [
          0.5019608,
          0.5019608,
          0.5019608,
          1.0
        ],
        "metallicFactor": 0.0
      },
      "name": "Cylinder 3 #808080FF"
    },
    {
      "pbrMetallicRoughness": {
        "metallicFactor": 0.0
      },
      "name": "PBROpaqueBuiltIn"
    }
  ],
  "meshes": [
    {
      "primitives": [
        {
          "attributes": {
            "POSITION": 0,
            "NORMAL": 1,
            "TANGENT": 2,
            "TEXCOORD_0": 3
          },
          "indices": 4,
          "material": 0
        }
      ],
      "name": "Cylinder 10"
    },
    {
      "primitives": [
        {
          "attributes": {
            "POSITION": 5,
            "NORMAL": 6
          },
          "indices": 7,
          "material": 1
        }
      ],
      "name": "ConvexHullSmooth 17"
    }
  ],
  "nodes": [
    {
      "children": [
        1,
        3
      ],
      "rotation": [
        0.0,
        0.0,
        0.0,
        -1.0
      ],
      "name": "Space Root"
    },
    {
      "children": [
        2
      ],
      "rotation": [
        0.0,
        0.0,
        0.0,
        -1.0
      ],
      "name": "Viewpoints"
    },
    {
      "rotation": [
        0.0,
        0.0,
        0.0,
        -1.0
      ],
      "translation": [
        0.0,
        1.5,
        0.0
      ],
      "name": "Viewpoint 1"
    },
    {
      "children": [
        4,
        18,
        36,
        41
      ],
      "rotation": [
        0.0,
        0.0,
        0.0,
        -1.0
      ],
      "name": "Stage 2"
    },
    {
      "children": [
        5,
        6,
        7,
        8,
        9,
        10,
        11,
        12,
        13,
        14,
        15,
        16,
        17
      ],
      "rotation": [
        -0.791766942,
        -0.160168916,
        -0.222068533,
        -0.5460189
      ],
      "scale": [
        1.00000012,
        1.0,
        0.99999994
      ],
      "translation": [
        0.122320771,
        0.321863174,
        -0.403326035
      ],
      "name": "GroupPreset 2"
    },
    {
      "rotation": [
        0.0,
        0.0,
        0.0,
        -1.0
      ],
      "name": "Group(Clone)"
    },
    {
      "mesh": 0,
      "rotation": [
        -0.163614765,
        0.830069363,
        -0.372498184,
        0.3813925
      ],
      "scale": [
        0.00305994553,
        0.03025221,
        0.00305994949
      ],
      "translation": [
        0.0144546777,
        0.0132276192,
        0.00607273
      ],
      "name": "Cylinder 10"
    },
    {
      "mesh": 0,
      "rotation": [
        -0.5264023,
        -0.5607998,
        -0.639065146,
        -0.000311936543
      ],
      "scale": [
        0.009030111,
        0.0346006453,
        0.009030142
      ],
      "translation": [
        0.0136179626,
        0.009968631,
        0.007395625
      ],
      "name": "Cylinder 16"
    },
    {
      "mesh": 1,
      "rotation": [
        -0.718316734,
        0.4008081,
        -0.221090332,
        -0.523920834
      ],
      "scale": [
        2.57415557,
        2.574157,
        2.57416034
      ],
      "translation": [
        0.0127172917,
        0.0100407228,
        0.006528616
      ],
      "name": "ConvexHullSmooth 17"
    },
    {
      "mesh": 0,
      "rotation": [
        -0.06868416,
        0.243258312,
        -0.7483284,
        -0.6132802
      ],
      "scale": [
        0.009344247,
        0.03580427,
        0.009344293
      ],
      "translation": [
        -0.0217098743,
        -0.0106351376,
        -0.008648783
      ],
      "name": "Cylinder 20"
    },
    {
      "mesh": 0,
      "rotation": [
        2.491771E-08,
        6.09532158E-09,
        1.82867872E-08,
        -1.0
      ],
      "scale": [
        0.009549134,
        0.03658955,
        0.009549213
      ],
      "translation": [
        -0.05764076,
        -0.05414343,
        -0.0212416947
      ],
      "name": "Cylinder 24"
    },
    {
      "mesh": 1,
      "rotation": [
        0.204105049,
        0.7799103,
        -0.441248357,
        -0.394183844
      ],
      "scale": [
        3.03714252,
        3.03713751,
        3.03715515
      ],
      "translation": [
        -0.0166327059,
        -0.0104148835,
        -0.00592958927
      ],
      "name": "ConvexHullSmooth 25"
    },
    {
      "mesh": 1,
      "rotation": [
        0.292004049,
        0.6992982,
        -0.5724884,
        -0.313006
      ],
      "scale": [
        3.03714323,
        3.037137,
        3.03715563
      ],
      "translation": [
        0.012865901,
        0.03541015,
        -0.0205799937
      ],
      "name": "ConvexHullSmooth 26"
    },
    {
      "mesh": 0,
      "rotation": [
        0.01733794,
        0.169465348,
        -0.875240862,
        -0.4526968
      ],
      "scale": [
        0.009030121,
        0.03460065,
        0.009030153
      ],
      "translation": [
        0.0127707422,
        0.010144338,
        0.0065740943
      ],
      "name": "Cylinder 27"
    },
    {
      "mesh": 1,
      "rotation": [
        0.360433757,
        0.6947214,
        0.49213168,
        -0.381124824
      ],
      "scale": [
        3.226991,
        3.226988,
        3.226982
      ],
      "translation": [
        0.03954421,
        -0.005197756,
        0.0348888934
      ],
      "name": "ConvexHullSmooth 31"
    },
    {
      "mesh": 1,
      "rotation": [
        0.680145442,
        -0.610883653,
        -0.0207514986,
        0.4047132
      ],
      "scale": [
        3.05463314,
        3.05464721,
        3.05464721
      ],
      "translation": [
        -0.0583453253,
        -0.0154194385,
        -0.021360904
      ],
      "name": "ConvexHullSmooth 33"
    },
    {
      "mesh": 0,
      "rotation": [
        -0.170108289,
        0.8268469,
        -0.371826857,
        0.3861764
      ],
      "scale": [
        0.003059947,
        0.03025223,
        0.00305994786
      ],
      "translation": [
        0.0113022178,
        0.010668166,
        0.00413036346
      ],
      "name": "Cylinder 35"
    },
    {
      "mesh": 0,
      "rotation": [
        0.539099455,
        0.21938549,
        0.6357479,
        -0.5070172
      ],
      "scale": [
        0.009030111,
        0.03460064,
        0.009030147
      ],
      "translation": [
        0.0419629067,
        -0.00743889064,
        0.03733921
      ],
      "name": "Cylinder 39"
    },
    {
      "children": [
        19,
        20,
        21,
        22,
        23,
        24,
        25,
        26,
        27,
        28,
        29,
        30,
        31,
        32,
        33,
        34,
        35
      ],
      "rotation": [
        -0.247923866,
        -0.7333901,
        0.595542967,
        0.214479417
      ],
      "scale": [
        1.0000006,
        1.00000036,
        1.00000024
      ],
      "translation": [
        0.228143156,
        0.369371176,
        -0.430465221
      ],
      "name": "GroupPreset 8"
    },
    {
      "rotation": [
        0.0,
        0.0,
        0.0,
        -1.0
      ],
      "name": "Group(Clone)"
    },
    {
      "mesh": 1,
      "rotation": [
        -0.204915643,
        -0.0139324367,
        0.00646216329,
        -0.978659153
      ],
      "scale": [
        3.140095,
        3.14008379,
        3.140072
      ],
      "translation": [
        0.007571742,
        -0.01949542,
        0.03560722
      ],
      "name": "ConvexHullSmooth 1"
    },
    {
      "mesh": 0,
      "rotation": [
        0.4766222,
        0.1124009,
        0.5041673,
        -0.7113457
      ],
      "scale": [
        0.003064925,
        0.0303015057,
        0.00306493
      ],
      "translation": [
        0.0129207373,
        -0.0224814788,
        0.0326147377
      ],
      "name": "Cylinder 3"
    },
    {
      "mesh": 1,
      "rotation": [
        7.59276446E-08,
        3.19578675E-08,
        -1.34949349E-08,
        -1.0
      ],
      "scale": [
        3.1400907,
        3.140082,
        3.14007282
      ],
      "translation": [
        -0.00212991238,
        0.0197102278,
        -0.03609371
      ],
      "name": "ConvexHullSmooth 4"
    },
    {
      "mesh": 1,
      "rotation": [
        -0.0539912544,
        -0.017692009,
        -0.07711976,
        -0.9954017
      ],
      "scale": [
        3.3373847,
        3.337374,
        3.33736324
      ],
      "translation": [
        -0.0382012129,
        0.01859191,
        -0.006132394
      ],
      "name": "ConvexHullSmooth 5"
    },
    {
      "mesh": 1,
      "rotation": [
        -0.176837772,
        0.0348457955,
        -0.0575735569,
        -0.981936634
      ],
      "scale": [
        3.14009213,
        3.14008236,
        3.14007258
      ],
      "translation": [
        -0.0260340273,
        -0.00270029157,
        0.02936244
      ],
      "name": "ConvexHullSmooth 6"
    },
    {
      "mesh": 0,
      "rotation": [
        0.472395778,
        0.105580471,
        0.5049528,
        -0.7146452
      ],
      "scale": [
        0.003064927,
        0.0303014945,
        0.0030649337
      ],
      "translation": [
        0.0111652911,
        -0.0194574669,
        0.0297683775
      ],
      "name": "Cylinder 7"
    },
    {
      "mesh": 0,
      "rotation": [
        0.849005759,
        0.519593358,
        -0.0187897626,
        0.09412244
      ],
      "scale": [
        0.009865384,
        0.0378011465,
        0.009865408
      ],
      "translation": [
        -0.0266790688,
        -0.002814956,
        0.02950579
      ],
      "name": "Cylinder 9"
    },
    {
      "mesh": 0,
      "rotation": [
        -0.370767146,
        -0.111727439,
        -0.610178232,
        -0.691181064
      ],
      "scale": [
        0.00986538548,
        0.03780109,
        0.00986539852
      ],
      "translation": [
        -0.00417365134,
        0.02053859,
        -0.0359074175
      ],
      "name": "Cylinder 13"
    },
    {
      "mesh": 0,
      "rotation": [
        0.2941291,
        -0.426104933,
        -0.366959721,
        -0.7728281
      ],
      "scale": [
        0.00306492648,
        0.0303015169,
        0.003064932
      ],
      "translation": [
        0.0275887549,
        1.08405948E-05,
        -0.03369406
      ],
      "name": "Cylinder 14"
    },
    {
      "mesh": 0,
      "rotation": [
        0.497258633,
        -0.193005934,
        -0.05298215,
        -0.844201148
      ],
      "scale": [
        0.003064927,
        0.0303015057,
        0.00306493463
      ],
      "translation": [
        -0.0304811448,
        -0.000292442739,
        0.0258645713
      ],
      "name": "Cylinder 15"
    },
    {
      "mesh": 1,
      "rotation": [
        -0.0530040525,
        -0.0152300112,
        -0.07869668,
        -0.995372057
      ],
      "scale": [
        3.337388,
        3.33737564,
        3.3373642
      ],
      "translation": [
        -0.0382231325,
        0.01875329,
        -0.00600147247
      ],
      "name": "ConvexHullSmooth 21"
    },
    {
      "mesh": 1,
      "rotation": [
        -0.0275571644,
        -0.00228269235,
        0.07122361,
        -0.997077048
      ],
      "scale": [
        3.1400938,
        3.14008212,
        3.140072
      ],
      "translation": [
        0.03160961,
        -0.00293678045,
        -0.029135704
      ],
      "name": "ConvexHullSmooth 29"
    },
    {
      "mesh": 0,
      "rotation": [
        0.4985476,
        -0.188570186,
        -0.06111327,
        -0.8438938
      ],
      "scale": [
        0.00306492718,
        0.03030152,
        0.0030649337
      ],
      "translation": [
        -0.0266511738,
        -9.73492861E-05,
        0.0233612657
      ],
      "name": "Cylinder 32"
    },
    {
      "mesh": 0,
      "rotation": [
        0.2964596,
        -0.431821764,
        -0.35997197,
        -0.77205044
      ],
      "scale": [
        0.003064929,
        0.0303015076,
        0.00306493673
      ],
      "translation": [
        0.02675888,
        -0.00203219056,
        -0.0296802521
      ],
      "name": "Cylinder 36"
    },
    {
      "mesh": 1,
      "rotation": [
        -0.1367483,
        -0.0192564018,
        0.0841527358,
        -0.9868371
      ],
      "scale": [
        3.1400888,
        3.14007878,
        3.14007115
      ],
      "translation": [
        0.0413302481,
        -0.0196015164,
        0.01024124
      ],
      "name": "ConvexHullSmooth 37"
    },
    {
      "mesh": 0,
      "rotation": [
        0.791901231,
        0.30441767,
        0.2659739,
        0.45769003
      ],
      "scale": [
        0.009865389,
        0.0378010869,
        0.009865413
      ],
      "translation": [
        0.0351810157,
        -0.00280277431,
        -0.025002718
      ],
      "name": "Cylinder 38"
    },
    {
      "children": [
        37,
        38,
        39,
        40
      ],
      "rotation": [
        0.08471151,
        0.4261291,
        0.20245935,
        0.877637863
      ],
      "scale": [
        1.00000012,
        0.9999999,
        1.00000036
      ],
      "translation": [
        0.245844841,
        0.295300484,
        -0.450716257
      ],
      "name": "GroupPreset 11"
    },
    {
      "rotation": [
        0.0,
        0.0,
        0.0,
        -1.0
      ],
      "name": "Group(Clone)"
    },
    {
      "mesh": 0,
      "rotation": [
        6.30665076E-09,
        6.04127663E-08,
        1.20825714E-08,
        -1.0
      ],
      "scale": [
        0.009634979,
        0.03691827,
        0.009635014
      ],
      "translation": [
        -0.00474149,
        0.001982212,
        -0.000840477645
      ],
      "name": "Cylinder 18"
    },
    {
      "mesh": 1,
      "rotation": [
        0.515049338,
        0.373990417,
        -0.170933843,
        -0.7520884
      ],
      "scale": [
        3.03714538,
        3.03713822,
        3.037156
      ],
      "translation": [
        -0.004079044,
        -0.00163368881,
        -0.00187484175
      ],
      "name": "ConvexHullSmooth 22"
    },
    {
      "mesh": 0,
      "rotation": [
        0.0865789,
        0.0316479541,
        -0.3204184,
        -0.942780256
      ],
      "scale": [
        0.00963498,
        0.03691825,
        0.009635006
      ],
      "translation": [
        0.0198718309,
        -0.0331997871,
        0.006103128
      ],
      "name": "Cylinder 23"
    },
    {
      "children": [
        42,
        43,
        44,
        45,
        46
      ],
      "rotation": [
        -0.7811531,
        0.463347435,
        -0.3162486,
        -0.27403605
      ],
      "scale": [
        1.00000024,
        1.00000083,
        1.00000119
      ],
      "translation": [
        0.30068326,
        0.410945415,
        -0.446886
      ],
      "name": "GroupPreset 12"
    },
    {
      "rotation": [
        0.0,
        0.0,
        0.0,
        -1.0
      ],
      "name": "Group(Clone)"
    },
    {
      "mesh": 1,
      "rotation": [
        0.51504904,
        0.373990685,
        -0.170934126,
        -0.7520885
      ],
      "scale": [
        3.03714323,
        3.03713775,
        3.03715658
      ],
      "translation": [
        -0.009000927,
        0.00552353263,
        -0.00748240948
      ],
      "name": "ConvexHullSmooth 19"
    },
    {
      "mesh": 0,
      "rotation": [
        0.226154283,
        0.08455273,
        -0.30711934,
        -0.920534
      ],
      "scale": [
        0.009634973,
        0.0369182378,
        0.00963501
      ],
      "translation": [
        0.0122648925,
        -0.0212782919,
        0.0106465816
      ],
      "name": "Cylinder 28"
    },
    {
      "mesh": 0,
      "rotation": [
        2.56753747E-08,
        -6.0412745E-08,
        -3.94674018E-08,
        -1.0
      ],
      "scale": [
        0.00963497348,
        0.0369182751,
        0.009635013
      ],
      "translation": [
        -0.009663388,
        0.009139359,
        -0.00644812
      ],
      "name": "Cylinder 30"
    },
    {
      "mesh": 1,
      "rotation": [
        0.309277833,
        -0.415370673,
        -0.844865441,
        -0.134227023
      ],
      "scale": [
        3.33738828,
        3.3373735,
        3.33736539
      ],
      "translation": [
        0.01613079,
        -0.0249323547,
        0.011928454
      ],
      "name": "ConvexHullSmooth 34"
    }
  ],
  "scene": 0,
  "scenes": [
    {
      "nodes": [
        0
      ],
      "name": "Scaffold_3_2022-08-18_00.37.12"
    }
  ]
}